PathFileType	4	(X/Y/Z)	PS_ngait_og_ss11.trc	
DataRate	CameraRate	NumFrames	NumMarkers	Units	OrigDataRate	OrigDataStartFrame	OrigNumFrames	
120.00	120.00	7	39	mm	120.00	816	132	
Frame#	Time	Sternum			Neck			RShoulder			LShoulder			Xiphoid			Thoracic			RAsis			LAsis			RPsis			LPsis			LThighSuperior			LThighInferior			LThighLateral			LShankSuperior			LShankInferior			LShankLateral			RThighSuperior			RThighInferior			RThighLateral			RShankSuperior			RShankInferior			RShankLateral			RHeel			RToe			RMidfootMedial			RMidfootLateral			RHindfoot			RMidfootSuperior			RToeMedial			RToeLateral			LHeel			LToe			LMidfootMedial			LMidfootLateral			LHindfoot			LMidfootSuperior			LToeMedial			LToeLateral			Sacral			
		X1	Y1	Z1	X2	Y2	Z2	X3	Y3	Z3	X4	Y4	Z4	X5	Y5	Z5	X6	Y6	Z6	X7	Y7	Z7	X8	Y8	Z8	X9	Y9	Z9	X10	Y10	Z10	X11	Y11	Z11	X12	Y12	Z12	X13	Y13	Z13	X14	Y14	Z14	X15	Y15	Z15	X16	Y16	Z16	X17	Y17	Z17	X18	Y18	Z18	X19	Y19	Z19	X20	Y20	Z20	X21	Y21	Z21	X22	Y22	Z22	X23	Y23	Z23	X24	Y24	Z24	X25	Y25	Z25	X26	Y26	Z26	X27	Y27	Z27	X28	Y28	Z28	X29	Y29	Z29	X30	Y30	Z30	X31	Y31	Z31	X32	Y32	Z32	X33	Y33	Z33	X34	Y34	Z34	X35	Y35	Z35	X36	Y36	Z36	X37	Y37	Z37	X38	Y38	Z38	X39	Y39	Z39	

83	0.683	863.89447	1439.81274	177.19443	697.34631	1530.92603	190.92490	751.16406	1515.45044	347.60400	720.39752	1524.69678	50.12650	904.28485	1280.61646	177.56380	624.86981	1310.19446	200.27730	837.49078	1015.27466	315.53574	815.16101	1000.55255	43.47200	640.95575	1032.37341	252.43452	625.97052	1022.79248	150.01311	743.18762	821.35101	-0.04474	747.92657	587.37506	21.11718	835.68744	687.18390	61.58128	646.42303	386.84570	12.75628	495.98965	259.95169	60.51074	605.07513	301.52121	92.92832	808.11633	817.70502	365.09933	869.71985	587.82324	328.73099	914.25641	756.24115	281.83133	872.87402	426.89658	332.96451	893.86902	175.64474	286.41742	933.82465	309.65842	248.57463	811.90887	65.44138	231.08847	1127.82764	54.08519	230.53970	1030.35510	34.43273	183.41451	1030.21509	31.01861	300.25381	976.67737	31.50632	293.83432	993.59540	94.87703	235.11580	1073.39771	38.13990	185.05194	1078.17932	38.64240	288.42215	350.73547	227.94130	120.92805	571.92847	28.20010	79.26292	487.59961	61.54648	143.68257	467.09888	55.97831	30.12333	431.39389	89.61830	44.79412	508.20544	120.83765	87.85946	519.39807	40.94100	136.91820	507.28125	42.27185	33.61839	633.46313	1027.58301	201.22382 
84	0.692	872.66797	1440.15869	178.22189	706.53296	1531.46094	192.97090	760.87976	1515.69592	349.05698	728.99451	1525.47327	51.66273	912.77002	1280.87903	178.27657	633.58417	1310.58545	201.63126	846.71155	1016.86285	316.63663	823.80225	1000.44208	44.74738	649.89142	1032.67444	254.09418	634.63031	1022.63739	151.33110	755.01276	820.92999	0.93881	765.19562	587.35925	20.07037	850.60687	688.57562	61.16402	663.27283	387.95111	11.05974	510.44894	266.25766	59.60839	617.94458	303.47461	90.82123	814.43201	818.20068	365.07611	875.80853	587.54987	329.50476	922.65930	755.63123	284.61270	877.47296	426.60681	333.26868	895.32703	175.23227	286.25168	937.15405	308.58652	248.88245	812.00940	65.54765	231.13763	1128.00415	53.02952	230.19868	1030.30896	34.38260	182.87923	1029.90967	30.24862	300.18564	976.23083	31.35918	293.84128	994.08936	94.83148	234.95586	1073.47205	37.76529	184.59978	1078.21313	37.64133	287.97299	367.68063	242.35303	121.02582	575.02441	24.45644	78.44731	494.64197	67.61384	142.81837	472.03546	62.27084	31.06845	438.32379	100.27411	43.93290	517.91980	125.75855	86.96128	524.46997	43.62121	136.09158	511.76898	43.96795	32.85397	642.26086	1027.65601	202.71265 
85	0.700	881.32416	1440.42712	179.08597	715.43530	1531.97388	194.82246	770.39429	1515.94788	350.42224	737.43304	1526.18127	53.10317	921.22296	1281.10950	178.66457	642.25604	1311.10938	202.90140	855.66241	1017.79248	317.66321	832.34650	1000.42822	46.00839	658.66992	1032.93604	255.50063	643.22717	1022.51245	152.70905	766.67529	820.84485	1.84971	782.31354	587.46991	19.47660	865.37347	690.22308	60.94894	680.20239	389.20831	9.64402	525.02454	272.54300	58.95253	630.43079	305.47549	88.66576	820.79340	818.71454	365.24731	881.35205	587.08173	330.15442	930.89545	754.68610	287.77795	881.45313	426.40067	333.56046	896.43762	174.84581	285.93802	939.96185	307.80591	248.95284	811.96112	65.68476	231.18413	1128.40222	52.15195	230.15947	1030.30823	34.35066	182.53830	1030.40527	30.64616	300.55270	976.97314	31.58793	294.16763	994.92145	95.35983	234.53841	1073.80615	37.34282	184.48711	1078.33667	37.42879	287.86981	384.62335	254.96938	121.99772	578.37573	21.16913	77.91945	502.32175	74.29333	143.06149	480.24792	68.43378	32.03439	447.13297	109.93910	44.03285	528.16028	131.05379	86.59153	530.58630	46.43332	135.57179	517.07941	46.36272	32.43596	650.94855	1027.72424	204.10483 
86	0.708	889.85468	1440.58716	179.75972	724.05334	1532.52307	196.34201	779.83856	1516.27356	351.63907	745.62085	1526.89929	54.37275	929.51624	1281.30957	179.08220	650.74994	1311.55298	204.03632	864.48175	1018.81482	318.75223	840.83356	1000.47906	47.19885	667.34552	1033.23572	256.87817	651.81384	1022.57733	154.07144	778.92096	820.58344	3.42447	799.09790	588.29706	18.94652	879.69824	692.19824	60.58580	697.14929	390.63394	8.53241	539.96014	278.44473	58.94641	644.63330	309.01917	87.90978	827.25049	819.18317	365.80518	886.51300	586.63611	330.64767	939.05481	753.77124	290.99829	885.38007	426.17487	333.71799	897.63745	174.47258	285.70746	942.82458	306.98297	249.02586	811.99707	65.72873	231.13573	1128.73206	51.16334	229.99052	1030.40332	34.27346	182.58408	1030.63098	30.78183	300.70813	976.23956	31.37422	293.93170	995.70490	95.73338	234.51677	1073.90894	36.82312	184.44070	1078.62024	37.05903	287.81509	399.67795	264.46326	122.67722	585.06433	20.55482	77.12434	511.96298	80.08728	142.99629	490.59082	75.00324	31.76283	458.08658	117.85238	43.86015	539.57690	136.31679	86.38125	539.17242	49.36342	134.65610	525.83990	50.07750	31.50002	659.57965	1027.90649	205.47481 
87	0.717	898.19440	1440.82458	180.33113	732.35791	1533.07800	197.58830	788.99396	1516.52222	352.78604	753.58661	1527.53235	55.60024	937.62360	1281.66455	179.36311	659.10468	1312.23987	205.08359	873.25696	1019.83087	319.89435	849.19080	1000.60004	48.21814	675.99585	1033.62659	258.27826	660.38928	1022.77087	155.45912	792.65991	819.70856	5.95949	815.79559	589.29163	18.81359	893.96753	694.41779	60.40416	714.06635	392.23767	7.73352	554.55457	285.11426	58.93825	659.31262	313.34708	88.33629	834.02277	819.19073	366.33252	891.45825	586.58081	331.21307	946.82452	752.38330	294.28098	889.00317	426.09274	333.95886	898.62646	174.31377	285.68008	945.35248	306.22128	249.27217	812.08685	65.77684	231.14308	1128.95520	50.67502	229.87930	1030.81372	33.73522	182.59933	1030.68518	30.64894	300.78372	977.04266	31.39833	294.04443	995.97375	95.40293	234.18697	1074.13147	36.21347	184.36853	1078.80994	36.85138	287.74271	414.38654	271.49573	123.84115	597.17480	25.83547	74.50024	524.83447	85.68685	141.90268	502.87241	82.19025	30.53059	470.80002	125.05314	43.37044	552.73730	142.30344	85.73294	551.97418	54.45071	132.67220	538.05048	56.66372	29.61553	668.19257	1028.19873	206.86870 
88	0.725	906.38721	1441.26001	180.74118	740.46460	1533.61816	198.66072	798.13495	1517.13220	353.85880	761.36523	1528.28210	56.54839	945.72266	1282.14917	179.62418	667.49451	1312.99561	206.38109	881.72681	1020.46710	321.13275	857.39911	1000.84235	49.31609	684.43561	1034.26538	259.61172	668.81647	1023.19153	156.90614	801.74829	822.07251	5.34004	831.57379	591.26575	18.33029	907.89093	697.11847	60.34693	730.91986	394.02246	7.24301	569.72412	291.15683	59.29686	676.10425	318.30566	88.46878	840.60620	819.44342	366.90021	896.40094	586.71167	331.78979	954.17865	751.37024	297.29855	892.66974	426.10284	334.29358	899.75909	174.25674	285.76102	947.87665	305.70404	249.65378	812.11841	65.88800	231.13396	1129.15588	50.17127	229.76158	1031.03528	33.44205	182.65486	1030.76965	30.49422	300.91656	976.20496	31.21116	293.94196	996.29987	95.26486	234.12595	1074.24988	35.78706	184.32555	1079.02881	36.57317	287.69412	429.16382	277.34555	125.25925	612.22565	32.87307	71.91399	540.74408	91.03790	139.60506	516.34552	91.06094	28.17503	485.34976	132.09406	42.79658	567.46423	149.03284	84.86347	567.07373	60.55725	130.57225	553.12610	64.52229	27.57136	676.62604	1028.72852	208.25894 
89	0.733	914.43622	1441.85645	181.13963	748.45343	1534.44714	199.58241	807.00500	1517.78845	354.82281	768.92480	1528.88477	57.56321	953.80652	1282.80542	179.86343	675.74799	1313.81702	207.66649	890.20575	1021.43799	322.38715	866.11456	1001.90570	50.35634	692.95557	1034.90796	260.66647	677.49347	1024.01453	157.92496	806.91730	828.43292	1.16923	847.15112	593.49884	18.22224	921.74707	700.52264	60.59644	747.68842	395.98508	7.04530	585.70734	295.90707	59.90201	693.54736	322.69180	88.72018	847.02661	819.85620	367.40329	901.60107	586.82861	332.50549	960.82056	750.52649	299.43588	896.18860	426.22565	334.75287	900.80389	174.17369	285.81772	949.93494	305.30078	249.84329	812.25293	65.94062	231.13605	1129.30615	49.72181	229.76411	1031.09351	33.30909	182.64584	1030.75366	30.41660	300.87772	975.89679	31.10675	293.91779	996.61066	95.28846	234.09883	1074.35120	35.50765	184.33377	1079.12903	36.33297	287.70209	444.61575	281.69049	126.82703	628.70398	38.56119	69.31448	557.62506	95.36905	137.94002	531.93988	97.43459	26.53180	501.17172	137.65904	42.34038	583.38751	154.55544	83.99237	583.75494	65.27858	128.57382	569.31836	70.69184	25.70632	685.22455	1029.46130	209.29572 
